<svg width="751" height="431" viewBox="0 0 751 431" fill="none" xmlns="http://www.w3.org/2000/svg">
  <rect width="751" height="431" fill="#FFFFFF"/>
  <g transform="translate(365 27)" stroke="#7A7A7A" stroke-width="1.8" fill="none" stroke-linecap="round">
    <path d="M7 2.5C10 0 14.5 0.3 17.2 3L20 5.8C22.8 8.6 22.8 13.1 20 15.9C17.2 18.7 12.7 18.7 9.9 15.9L8.5 14.5"/>
    <path d="M13.5 7.3L11 9.8"/>
    <path d="M12 20.5C9 23 4.5 22.7 1.8 20L-1 17.2C-3.8 14.4 -3.8 9.9 -1 7.1C1.8 4.3 6.3 4.3 9.1 7.1L10.5 8.5"/>
  </g>
  <text x="375.5" y="74" text-anchor="middle" fill="#555555" font-family="Arial, Helvetica, sans-serif" font-size="20" font-weight="700">LOC / Python files</text>

  <line x1="81.5" y1="343.5" x2="682.5" y2="343.5" stroke="#D9D9D9"/>
  <line x1="81.5" y1="295.5" x2="682.5" y2="295.5" stroke="#D9D9D9"/>
  <line x1="81.5" y1="247.5" x2="682.5" y2="247.5" stroke="#D9D9D9"/>
  <line x1="81.5" y1="200.5" x2="682.5" y2="200.5" stroke="#D9D9D9"/>
  <line x1="81.5" y1="152.5" x2="682.5" y2="152.5" stroke="#D9D9D9"/>
  <line x1="81.5" y1="104.5" x2="682.5" y2="104.5" stroke="#D9D9D9"/>

  <line x1="81.5" y1="104" x2="81.5" y2="343" stroke="#D9D9D9"/>
  <line x1="201.5" y1="104" x2="201.5" y2="343" stroke="#D9D9D9"/>
  <line x1="321.5" y1="104" x2="321.5" y2="343" stroke="#D9D9D9"/>
  <line x1="441.5" y1="104" x2="441.5" y2="343" stroke="#D9D9D9"/>
  <line x1="561.5" y1="104" x2="561.5" y2="343" stroke="#D9D9D9"/>
  <line x1="681.5" y1="104" x2="681.5" y2="343" stroke="#D9D9D9"/>

  <line x1="81.5" y1="104" x2="81.5" y2="343" stroke="#CFCFCF"/>
  <line x1="81" y1="343.5" x2="682" y2="343.5" stroke="#CFCFCF"/>

  <text x="70" y="348" text-anchor="end" fill="#666666" font-family="Arial, Helvetica, sans-serif" font-size="14">0</text>
  <text x="70" y="300" text-anchor="end" fill="#666666" font-family="Arial, Helvetica, sans-serif" font-size="14">50</text>
  <text x="70" y="252" text-anchor="end" fill="#666666" font-family="Arial, Helvetica, sans-serif" font-size="14">100</text>
  <text x="70" y="205" text-anchor="end" fill="#666666" font-family="Arial, Helvetica, sans-serif" font-size="14">150</text>
  <text x="70" y="157" text-anchor="end" fill="#666666" font-family="Arial, Helvetica, sans-serif" font-size="14">200</text>
  <text x="70" y="109" text-anchor="end" fill="#666666" font-family="Arial, Helvetica, sans-serif" font-size="14">250</text>

  <text x="81" y="366" text-anchor="middle" fill="#666666" font-family="Arial, Helvetica, sans-serif" font-size="14">2021</text>
  <text x="201" y="366" text-anchor="middle" fill="#666666" font-family="Arial, Helvetica, sans-serif" font-size="14">2022</text>
  <text x="321" y="366" text-anchor="middle" fill="#666666" font-family="Arial, Helvetica, sans-serif" font-size="14">2023</text>
  <text x="441" y="366" text-anchor="middle" fill="#666666" font-family="Arial, Helvetica, sans-serif" font-size="14">2024</text>
  <text x="561" y="366" text-anchor="middle" fill="#666666" font-family="Arial, Helvetica, sans-serif" font-size="14">2025</text>
  <text x="681" y="366" text-anchor="middle" fill="#666666" font-family="Arial, Helvetica, sans-serif" font-size="14">2026</text>

  <polyline
    points="81,133 201,126 321,124 441,139 561,137 681,137"
    fill="none"
    stroke="#2F97E5"
    stroke-width="3"
    stroke-linecap="round"
    stroke-linejoin="round"
  />

  <circle cx="81" cy="133" r="3.5" fill="#79B9EF" stroke="#2F97E5" stroke-width="1.5"/>
  <circle cx="201" cy="126" r="3.5" fill="#79B9EF" stroke="#2F97E5" stroke-width="1.5"/>
  <circle cx="321" cy="124" r="3.5" fill="#79B9EF" stroke="#2F97E5" stroke-width="1.5"/>
  <circle cx="441" cy="139" r="3.5" fill="#79B9EF" stroke="#2F97E5" stroke-width="1.5"/>
  <circle cx="561" cy="137" r="3.5" fill="#79B9EF" stroke="#2F97E5" stroke-width="1.5"/>
  <circle cx="681" cy="137" r="3.5" fill="#79B9EF" stroke="#2F97E5" stroke-width="1.5"/>

  <line x1="53" y1="380" x2="698" y2="380" stroke="#333333" stroke-width="2"/>
</svg>
